<svg width="504" height="77" viewBox="0 0 504 77" fill="none" xmlns="http://www.w3.org/2000/svg">
<path d="M174.516 73.2924C166.898 73.2924 161.025 71.1338 156.898 66.8166C152.772 62.436 150.708 56.0237 150.708 47.5798C150.708 39.263 152.708 32.9142 156.708 28.5335C160.708 24.0894 166.326 21.8673 173.564 21.8673C176.929 21.8673 180.135 22.0895 183.182 22.5339C184.389 22.7244 185.373 23.2958 186.134 24.2481C186.96 25.2004 187.372 26.3115 187.372 27.5812C187.372 28.6605 186.928 29.5176 186.039 30.1525C185.214 30.7873 184.262 30.9778 183.182 30.7239C180.071 30.0255 177.119 29.6763 174.326 29.6763C169.945 29.6763 166.644 31.1048 164.422 33.9617C162.263 36.8187 161.184 41.358 161.184 47.5798C161.184 53.9286 162.327 58.4997 164.612 61.2932C166.961 64.0866 170.516 65.4834 175.278 65.4834C178.262 65.4834 181.119 65.0707 183.849 64.2454C184.865 63.9279 185.785 64.0866 186.611 64.7215C187.436 65.2929 187.849 66.0865 187.849 67.1023C187.849 68.3721 187.436 69.5148 186.611 70.5306C185.785 71.5465 184.769 72.1813 183.563 72.4353C180.516 73.0067 177.5 73.2924 174.516 73.2924Z" fill="#5282FF"/>
<path d="M234.24 47.5798C234.24 35.5172 229.859 29.4858 221.098 29.4858C212.337 29.4858 207.956 35.5172 207.956 47.5798C207.956 59.6425 212.337 65.6738 221.098 65.6738C229.859 65.6738 234.24 59.6425 234.24 47.5798ZM238.24 66.6262C234.113 71.0703 228.399 73.2924 221.098 73.2924C213.797 73.2924 208.083 71.0703 203.956 66.6262C199.829 62.1185 197.766 55.7698 197.766 47.5798C197.766 39.3899 199.829 33.0729 203.956 28.6288C208.083 24.1211 213.797 21.8673 221.098 21.8673C228.399 21.8673 234.113 24.1211 238.24 28.6288C242.366 33.0729 244.43 39.3899 244.43 47.5798C244.43 55.7698 242.366 62.1185 238.24 66.6262Z" fill="#5282FF"/>
<path d="M275.305 29.4858C267.052 29.4858 262.925 35.5172 262.925 47.5798C262.925 53.6747 264.005 58.214 266.163 61.198C268.385 64.1819 271.433 65.6738 275.305 65.6738C278.67 65.6738 281.559 64.5628 283.971 62.3407C286.447 60.1187 287.686 57.5792 287.686 54.7222V40.4375C287.686 37.5805 286.447 35.041 283.971 32.819C281.559 30.5969 278.67 29.4858 275.305 29.4858ZM272.925 73.2924C267.147 73.2924 262.354 70.9751 258.545 66.3405C254.799 61.7059 252.926 55.4523 252.926 47.5798C252.926 39.4534 254.735 33.1364 258.354 28.6288C262.036 24.1211 266.893 21.8673 272.925 21.8673C278.575 21.8673 283.4 23.8989 287.4 27.9621C287.463 28.0256 287.527 28.0574 287.59 28.0574C287.654 28.0574 287.686 28.0256 287.686 27.9621V5.86843C287.686 4.4717 288.162 3.29717 289.114 2.34486C290.13 1.39254 291.336 0.916382 292.733 0.916382C294.13 0.916382 295.304 1.39254 296.256 2.34486C297.209 3.29717 297.685 4.4717 297.685 5.86843V67.6737C297.685 68.9435 297.209 70.0545 296.256 71.0068C295.368 71.8956 294.288 72.34 293.018 72.34C291.749 72.34 290.638 71.8956 289.685 71.0068C288.797 70.0545 288.32 68.9435 288.257 67.6737L288.162 66.2452C288.162 66.1817 288.13 66.15 288.066 66.15C288.003 66.15 287.939 66.1817 287.876 66.2452C285.527 68.8482 283.21 70.6894 280.924 71.7687C278.639 72.7845 275.972 73.2924 272.925 73.2924Z" fill="#5282FF"/>
<path d="M335.193 47.3894C329.987 47.3894 326.051 48.2782 323.385 50.0559C320.782 51.77 319.48 54.1191 319.48 57.103C319.48 59.452 320.179 61.3884 321.575 62.9121C322.972 64.4358 324.654 65.1977 326.623 65.1977C330.813 65.1977 334.146 63.8962 336.622 61.2932C339.161 58.6267 340.431 55.0079 340.431 50.4368V48.1512C340.431 47.6433 340.145 47.3894 339.574 47.3894H335.193ZM324.242 73.2924C319.925 73.2924 316.369 71.8956 313.576 69.1022C310.846 66.3087 309.481 62.6264 309.481 58.0553C309.481 52.4684 311.608 48.1512 315.861 45.1038C320.115 41.9929 326.559 40.4375 335.193 40.4375H339.574C340.145 40.4375 340.431 40.1518 340.431 39.5804V38.5328C340.431 35.168 339.638 32.819 338.05 31.4857C336.463 30.1525 333.606 29.4858 329.48 29.4858C325.797 29.4858 321.417 30.2477 316.338 31.7714C315.385 32.0888 314.465 31.9619 313.576 31.3905C312.751 30.7556 312.338 29.9303 312.338 28.9145C312.338 27.6447 312.719 26.5019 313.481 25.4861C314.242 24.4703 315.227 23.8354 316.433 23.5815C321.004 22.4387 325.353 21.8673 329.48 21.8673C337.479 21.8673 342.971 23.2958 345.955 26.1527C348.938 29.0097 350.43 34.2474 350.43 41.866V67.6737C350.43 68.9435 349.954 70.0545 349.002 71.0068C348.113 71.8956 347.034 72.34 345.764 72.34C344.494 72.34 343.383 71.8956 342.431 71.0068C341.542 70.0545 341.066 68.9435 341.003 67.6737L340.907 65.2929C340.907 65.2294 340.876 65.1977 340.812 65.1977C340.685 65.1977 340.622 65.2294 340.622 65.2929C336.939 70.6259 331.479 73.2924 324.242 73.2924Z" fill="white"/>
<path d="M372.233 70.9116C371.281 71.8639 370.106 72.34 368.71 72.34C367.313 72.34 366.107 71.8639 365.091 70.9116C364.139 69.9593 363.662 68.7847 363.662 67.388V27.486C363.662 26.2162 364.107 25.1369 364.996 24.2481C365.948 23.2958 367.059 22.8196 368.329 22.8196C369.599 22.8196 370.678 23.2958 371.567 24.2481C372.519 25.1369 373.027 26.2162 373.09 27.486L373.186 28.9145C373.186 28.9779 373.217 29.0097 373.281 29.0097C373.344 29.0097 373.408 28.9779 373.471 28.9145C377.979 24.2164 383.121 21.8673 388.899 21.8673C394.676 21.8673 398.898 23.518 401.565 26.8194C404.231 30.0572 405.564 35.3902 405.564 42.8183V67.4832C405.564 68.8165 405.088 69.9593 404.136 70.9116C403.184 71.8639 402.041 72.34 400.707 72.34C399.374 72.34 398.2 71.8639 397.184 70.9116C396.232 69.9593 395.755 68.8165 395.755 67.4832V44.2467C395.755 38.5328 395.057 34.6601 393.66 32.6285C392.264 30.5334 389.724 29.4858 386.042 29.4858C383.058 29.4858 380.233 30.8191 377.566 33.4856C374.963 36.0886 373.662 38.882 373.662 41.866V67.388C373.662 68.7847 373.186 69.9593 372.233 70.9116Z" fill="white"/>
<path d="M418.38 32.3428C417.3 32.3428 416.38 31.9619 415.618 31.2C414.92 30.4382 414.57 29.5493 414.57 28.5335C414.57 27.5177 414.92 26.6289 415.618 25.867C416.38 25.1052 417.3 24.7243 418.38 24.7243H423.713C424.284 24.7243 424.57 24.4386 424.57 23.8672V11.5823C424.57 10.1856 425.046 9.01107 425.998 8.05875C426.95 7.10643 428.125 6.63027 429.522 6.63027C430.918 6.63027 432.093 7.10643 433.045 8.05875C434.061 9.01107 434.569 10.1856 434.569 11.5823V23.8672C434.569 24.4386 434.855 24.7243 435.426 24.7243H447.901C448.981 24.7243 449.87 25.1052 450.568 25.867C451.33 26.6289 451.711 27.5177 451.711 28.5335C451.711 29.5493 451.33 30.4382 450.568 31.2C449.87 31.9619 448.981 32.3428 447.901 32.3428H435.426C434.855 32.3428 434.569 32.6285 434.569 33.1999V55.1984C434.569 59.5155 435.077 62.3407 436.093 63.674C437.108 65.0072 439.14 65.6738 442.188 65.6738C443.648 65.6738 445.044 65.5786 446.378 65.3881C447.394 65.2612 448.282 65.4834 449.044 66.0548C449.87 66.6262 450.282 67.388 450.282 68.3403C450.282 69.4831 449.901 70.4989 449.139 71.3877C448.378 72.2766 447.425 72.7845 446.282 72.9114C443.616 73.1654 441.616 73.2924 440.283 73.2924C434.442 73.2924 430.347 72.0543 427.998 69.5783C425.712 67.1023 424.57 62.6264 424.57 56.1507V33.1999C424.57 32.6285 424.284 32.3428 423.713 32.3428H418.38Z" fill="white"/>
<path d="M483.52 29.2954C476.283 29.2954 472.219 33.5808 471.331 42.1516C471.204 42.723 471.458 43.0087 472.092 43.0087H493.424C493.932 43.0087 494.186 42.723 494.186 42.1516C493.805 33.5808 490.25 29.2954 483.52 29.2954ZM485.901 73.2924C477.965 73.2924 471.839 71.1338 467.521 66.8166C463.268 62.4995 461.141 56.0872 461.141 47.5798C461.141 39.0725 463.045 32.6602 466.855 28.3431C470.727 24.0259 476.283 21.8673 483.52 21.8673C496.726 21.8673 503.551 29.6128 503.995 45.1038C504.059 46.6275 503.519 47.8973 502.376 48.9131C501.233 49.9289 499.9 50.4368 498.376 50.4368H471.997C471.489 50.4368 471.235 50.6907 471.235 51.1986C471.997 60.9757 477.203 65.8643 486.853 65.8643C490.218 65.8643 493.52 65.3247 496.757 64.2454C497.71 63.9279 498.599 64.0549 499.424 64.6263C500.249 65.1977 500.662 65.9913 500.662 67.0071C500.662 68.2133 500.281 69.2926 499.519 70.245C498.757 71.1973 497.773 71.8321 496.567 72.1496C493.075 72.9114 489.52 73.2924 485.901 73.2924Z" fill="white"/>
<path fill-rule="evenodd" clip-rule="evenodd" d="M22.4514 19.4502L32.5522 27.4245L16.3962 47.8887L32.5522 68.3529L22.4514 76.3272L0 47.8887L22.4514 19.4502Z" fill="#5282FF"/>
<path fill-rule="evenodd" clip-rule="evenodd" d="M35.1813 35.9273L48.1895 19.4502L58.2903 27.4245L45.2821 43.9015C43.4365 46.2393 43.4365 49.5381 45.2821 51.8758L58.2903 68.3529L48.1895 76.3272L35.1813 59.8501C29.6446 52.8369 29.6446 42.9405 35.1813 35.9273Z" fill="white"/>
<path fill-rule="evenodd" clip-rule="evenodd" d="M113.628 19.4502L103.527 27.4245L119.683 47.8887L103.527 68.3529L113.628 76.3272L136.079 47.8887L113.628 19.4502Z" fill="#5282FF"/>
<path fill-rule="evenodd" clip-rule="evenodd" d="M100.898 35.9273L87.8895 19.4502L77.7887 27.4245L90.797 43.9015C92.6425 46.2393 92.6425 49.5381 90.7969 51.8758L77.7887 68.3529L87.8895 76.3272L100.898 59.8501C106.434 52.8369 106.434 42.9405 100.898 35.9273Z" fill="white"/>
</svg>
